<svg width="128" height="200" viewBox="0 0 128 200" fill="none" xmlns="http://www.w3.org/2000/svg">
<path d="M24.6821 129.178V109.447H46.0096V91.9946H24.6821V71.3798H50.1021V54.0564H5.55835V146.507H72.6188V129.178H24.6821Z" fill="white"/>
<path d="M127.849 54.0564V146.507H109.114V105.095L90.5763 127.721L72.6187 104.971V125.28H53.3032V54.0564L68.0462 71.3798L90.7224 98.019L127.849 54.0564Z" fill="#DA1A1A"/>
<path d="M15.3629 48.6163C15.3629 48.6163 12.6286 24.528 9.90303 11.337C9.78869 10.7779 10.1956 10.2525 10.7443 10.2525H34.4544C34.4544 10.2525 40.1934 25.1059 57.9219 25.8035C75.6509 26.501 82.2633 12.7657 83.0954 10.2525H108.369C109.215 10.2525 109.947 10.869 110.121 11.7336C111.291 17.5432 115.503 39.3907 116.706 58.8592L125.696 48.7976C125.696 48.7976 123.711 33.3662 121.841 21.6568C119.97 9.94695 119.486 5.29352 114.835 2.20246C111.218 -0.205399 105.438 0.00478746 96.7406 0.00478746H75.9574C75.9574 0.00478746 75.34 13.0091 62.4126 15.3121C49.7461 17.5672 42.6807 8.65674 41.5742 0H16.2959C7.42442 0 4.24192 1.7438 1.93721 4.7011C-0.751835 8.15521 -0.107073 11.8961 1.93721 22.3254C3.98105 32.7547 5.64578 48.5495 5.64578 48.5495L15.3676 48.6117L15.3629 48.6163Z" fill="white"/>
<path d="M123.963 151.619C123.643 155.881 122.627 168.517 121.196 178.889C119.573 190.642 120.044 194.091 114.835 197.789C111.282 200.307 105.434 199.987 96.736 199.987H75.9571C75.9571 199.987 74.8324 186.725 62.2067 184.99C49.5537 183.251 42.96 191.335 41.8487 199.991H16.2956C7.41983 199.991 4.24167 198.248 1.93261 195.29C-0.756429 191.836 -0.106885 188.091 1.93261 177.661C3.97646 167.232 5.64119 151.438 5.64119 151.438L15.3583 151.375C15.3583 151.375 12.6283 174.986 9.89843 188.177C9.78409 188.736 10.191 189.261 10.7397 189.261H34.4498C34.4498 189.261 41.4418 174.814 57.8443 174.441C74.6537 174.054 82.2587 186.868 83.0908 189.381H108.369C109.215 189.381 109.942 188.764 110.116 187.9C111.081 183.108 112.695 167.777 113.902 151.619H123.963Z" fill="#DA1A1A"/>
</svg>
