<svg width="20" height="20" viewBox="0 0 20 20" fill="none" xmlns="http://www.w3.org/2000/svg">
<path d="M14.5832 5.68945H14.5915M5.83317 1.93945H14.1665C16.4677 1.93945 18.3332 3.80493 18.3332 6.10612V14.4395C18.3332 16.7406 16.4677 18.6061 14.1665 18.6061H5.83317C3.53198 18.6061 1.6665 16.7406 1.6665 14.4395V6.10612C1.6665 3.80493 3.53198 1.93945 5.83317 1.93945ZM13.3332 9.74779C13.436 10.4413 13.3176 11.1496 12.9946 11.772C12.6717 12.3943 12.1608 12.899 11.5345 13.2142C10.9083 13.5294 10.1985 13.6391 9.50633 13.5277C8.81411 13.4163 8.17464 13.0895 7.67887 12.5938C7.1831 12.098 6.85628 11.4585 6.74489 10.7663C6.63351 10.0741 6.74322 9.36436 7.05844 8.7381C7.37366 8.11183 7.87833 7.6009 8.50066 7.27799C9.12299 6.95507 9.8313 6.83661 10.5248 6.93945C11.2323 7.04436 11.8872 7.37401 12.3929 7.87971C12.8986 8.38541 13.2283 9.04035 13.3332 9.74779Z" stroke="#1E1E1E" stroke-width="2" stroke-linecap="round" stroke-linejoin="round"/>
</svg>
