<svg width="226" height="226" viewBox="0 0 226 226" fill="none" xmlns="http://www.w3.org/2000/svg">
<rect width="225" height="225" transform="translate(0.5 0.5)" fill="white"/>
<path d="M70.7175 140.64V122.142H91.8784V105.781H70.7175V86.4542H95.9389V70.2135H51.7432V156.886H118.28V140.64H70.7175Z" fill="#303030"/>
<path d="M173.079 70.2135V156.886H154.49V118.062L136.097 139.274L118.28 117.946V136.986H99.1152V70.2135L113.743 86.4542L136.242 111.428L173.079 70.2135Z" fill="#FF0000"/>
<path d="M61.4716 65.1136C61.4716 65.1136 58.7587 42.5308 56.0544 30.1643C55.941 29.6401 56.3447 29.1475 56.8891 29.1475H80.414C80.414 29.1475 86.1081 43.0726 103.698 43.7266C121.289 44.3806 127.849 31.5037 128.675 29.1475H153.751C154.59 29.1475 155.316 29.7256 155.489 30.5361C156.651 35.9826 160.829 56.4646 162.023 74.7163L170.943 65.2835C170.943 65.2835 168.973 50.8166 167.118 39.8391C165.262 28.8611 164.781 24.4985 160.167 21.6006C156.578 19.3433 150.843 19.5403 142.214 19.5403H121.593C121.593 19.5403 120.98 31.7319 108.154 33.8909C95.5862 36.005 88.5759 27.6515 87.4781 19.5358H62.3973C53.5952 19.5358 50.4375 21.1706 48.1508 23.9431C45.4828 27.1813 46.1225 30.6884 48.1508 40.4659C50.1787 50.2433 51.8304 65.051 51.8304 65.051L61.4763 65.1093L61.4716 65.1136Z" fill="#303030"/>
<path d="M169.222 161.679C168.905 165.674 167.897 177.521 166.477 187.245C164.866 198.263 165.334 201.496 160.166 204.963C156.641 207.324 150.838 207.024 142.208 207.024H121.592C121.592 207.024 120.476 194.59 107.949 192.964C95.3945 191.334 88.8523 198.912 87.7497 207.028H62.3963C53.5898 207.028 50.4365 205.393 48.1455 202.621C45.4775 199.382 46.1219 195.871 48.1455 186.093C50.1734 176.316 51.8251 161.509 51.8251 161.509L61.4663 161.45C61.4663 161.45 58.7577 183.585 56.0491 195.952C55.9356 196.476 56.3394 196.968 56.8838 196.968H80.4087C80.4087 196.968 87.346 183.424 103.62 183.075C120.298 182.712 127.844 194.724 128.67 197.08H153.75C154.59 197.08 155.311 196.502 155.484 195.692C156.441 191.2 158.043 176.827 159.241 161.679H169.222Z" fill="#FF0000"/>
</svg>
