<svg width="14" height="17" viewBox="0 0 14 17" fill="none" xmlns="http://www.w3.org/2000/svg">
<path d="M13 6.93933C13 11.606 7 15.606 7 15.606C7 15.606 1 11.606 1 6.93933C1 5.34803 1.63214 3.82191 2.75736 2.69669C3.88258 1.57147 5.4087 0.939331 7 0.939331C8.5913 0.939331 10.1174 1.57147 11.2426 2.69669C12.3679 3.82191 13 5.34803 13 6.93933Z" stroke="#1D4ED8" stroke-width="1.6" stroke-linecap="round" stroke-linejoin="round"/>
<path d="M7 8.93933C8.10457 8.93933 9 8.0439 9 6.93933C9 5.83476 8.10457 4.93933 7 4.93933C5.89543 4.93933 5 5.83476 5 6.93933C5 8.0439 5.89543 8.93933 7 8.93933Z" stroke="#1D4ED8" stroke-width="1.6" stroke-linecap="round" stroke-linejoin="round"/>
</svg>
