<svg width="18" height="21" viewBox="0 0 18 21" fill="none" xmlns="http://www.w3.org/2000/svg">
<path d="M16.5 8.93335C16.5 14.7667 9 19.7667 9 19.7667C9 19.7667 1.5 14.7667 1.5 8.93335C1.5 6.94423 2.29018 5.03657 3.6967 3.63005C5.10322 2.22353 7.01088 1.43335 9 1.43335C10.9891 1.43335 12.8968 2.22353 14.3033 3.63005C15.7098 5.03657 16.5 6.94423 16.5 8.93335Z" stroke="white" stroke-width="2" stroke-linecap="round" stroke-linejoin="round"/>
<path d="M9 11.4333C10.3807 11.4333 11.5 10.3141 11.5 8.93335C11.5 7.55264 10.3807 6.43335 9 6.43335C7.61929 6.43335 6.5 7.55264 6.5 8.93335C6.5 10.3141 7.61929 11.4333 9 11.4333Z" stroke="white" stroke-width="2" stroke-linecap="round" stroke-linejoin="round"/>
</svg>
