<svg width="256" height="32" viewBox="0 0 256 32" fill="none" xmlns="http://www.w3.org/2000/svg">
<g clip-path="url(#clip0_338_3900)">
<path d="M111.072 13.8188H115.498V8.54874H111.072V2.63313H105.118V8.54874H102.422V13.8188H105.118V26.0888C105.118 30.7555 107.975 31.5994 112.642 31.5994C113.485 31.5994 114.612 31.5192 115.338 31.439V26.3715C114.975 26.4095 114.494 26.4517 113.81 26.4517C111.114 26.4517 111.076 24.3589 111.076 23.1521V13.8188H111.072ZM89.0255 8.51076C87.055 8.51076 84.5993 9.39684 83.1099 10.8821V8.91161H77.1141V31.0382H83.1099V19.3293C82.9875 14.5023 85.6837 13.4981 87.3335 13.4981C89.6669 13.4981 91.5951 14.5445 91.5951 17.9665V31.0424H97.7513V17.9665C97.7513 12.2112 95.4179 8.51076 89.0213 8.51076H89.0255ZM60.7048 13.8188C63.7217 13.8188 65.6921 16.0297 65.9326 18.0424H54.8693C55.1098 15.7892 57.2449 13.8188 60.7006 13.8188H60.7048ZM60.747 31.5994C67.2238 31.5994 70.1985 27.6584 71.0845 26.4517L66.4179 23.7555C65.7343 24.5192 64.0845 26.3293 60.747 26.3293C59.5402 26.3293 55.4347 25.9285 54.7132 22.3082H72.1732C72.1732 22.3082 72.2913 21.2238 72.2913 19.5319C72.093 12.4137 66.4179 8.54874 60.747 8.54874C56.6035 8.54874 48.7174 10.9622 48.7174 20.0551C48.7174 29.1479 56.4432 31.5994 60.747 31.5994ZM35.6035 32.0002L47.4685 8.98756H40.7511L35.6035 19.8103L30.4558 8.98756H23.7764L35.6035 32.0002ZM6.35866 7.13946H22.287V1.62891H0V31.0382H22.287V25.5276H6.35866V19.2492H20.4389V13.6964H6.35866V7.13946Z" fill="#F5F5F5"/>
<path d="M249.478 19.9711C249.478 23.8361 247.145 26.2074 243.402 26.2074C239.66 26.2074 237.331 23.4732 237.331 19.9711C237.331 16.469 239.584 13.6968 243.402 13.6968C247.221 13.6968 249.478 16.3128 249.478 19.9711ZM249.238 31.0344H255.192V8.90778H249.238V11.1989C248.111 9.70947 245.736 8.42255 242.516 8.42255C235.516 8.42255 231.411 13.6124 231.411 19.9669C231.411 26.3213 235.512 31.5112 242.516 31.5112C245.656 31.5112 248.31 30.0639 249.238 28.815V31.0259V31.0344ZM220.474 31.0344H226.508V8.94998H220.474V31.0344ZM226.791 3.31707C226.791 1.54913 225.301 0.0976562 223.491 0.0976562C221.681 0.0976562 220.111 1.54491 220.111 3.31707C220.111 5.08922 221.639 6.57445 223.491 6.57445C225.343 6.57445 226.791 5.12719 226.791 3.31707ZM205.592 8.50694C203.618 8.50694 201.166 9.39302 199.677 10.8782V8.90778H193.685V31.0344H199.677V19.3255C199.554 14.4985 202.251 13.4943 203.9 13.4943C206.234 13.4943 208.166 14.5407 208.166 17.9626V31.0386H214.322V17.9626C214.322 12.2074 211.989 8.50694 205.592 8.50694ZM182.056 19.9711C182.056 23.8361 179.723 26.2074 175.98 26.2074C172.238 26.2074 169.904 23.4732 169.904 19.9711C169.904 16.469 172.158 13.6968 175.98 13.6968C179.803 13.6968 182.056 16.3128 182.056 19.9711ZM181.816 31.0344H187.769V8.90778H181.816V11.1989C180.689 9.70947 178.314 8.42255 175.099 8.42255C168.099 8.42255 163.993 13.6124 163.993 19.9669C163.993 26.3213 168.094 31.5112 175.099 31.5112C178.234 31.5112 180.892 30.0639 181.816 28.815V31.0259V31.0344ZM158.639 0.705251L143.234 18.085L127.824 0.705251V31.0386H134.221V16.9964L143.234 27.4563L152.242 16.9964V31.0386H158.639V0.705251Z" fill="#F5F5F5"/>
<path d="M252.663 0C251.815 0 251.102 0.333333 250.633 0.86076C250.199 0.320675 249.566 0 248.604 0C248.089 0 247.376 0.299578 246.941 0.687764V0.113924H245.233V6.41772H246.941L246.954 3.08017C246.954 1.70464 247.642 1.41772 248.169 1.41772C248.811 1.41772 249.385 1.7173 249.385 2.69198V6.41772H251.114V2.91139C251.127 1.70886 251.849 1.42194 252.317 1.42194C252.984 1.42194 253.545 1.72152 253.545 2.6962V6.42194H255.275V2.6962C255.275 1.05485 254.473 0 252.663 0ZM240.385 1.50211C241.359 1.50211 242.114 2.27004 242.114 3.27848C242.114 4.28692 241.359 5.08017 240.385 5.08017C239.41 5.08017 238.65 4.32489 238.65 3.27848C238.65 2.23207 239.418 1.50211 240.385 1.50211ZM240.385 6.56962C242.262 6.56962 243.823 5.10127 243.823 3.27848C243.823 1.4557 242.262 0 240.385 0C238.507 0 236.967 1.48101 236.967 3.27848C236.967 5.07595 238.503 6.56962 240.385 6.56962ZM233.068 6.58228C234.511 6.58228 235.511 5.96203 236.119 4.72574L234.663 4.1519C234.262 4.80591 233.688 5.06751 233.068 5.06751C232.072 5.06751 231.338 4.32068 231.338 3.29114C231.338 2.2616 232.06 1.51477 233.055 1.51477C233.676 1.51477 234.228 1.82279 234.604 2.4557L236.152 1.8481C235.511 0.666667 234.389 0.0126582 233.055 0.0126582C231.174 0.0126582 229.625 1.48101 229.625 3.29114C229.625 5.10127 231.186 6.58228 233.064 6.58228H233.068Z" fill="#F5F5F5"/>
</g>
<defs>
<clipPath id="clip0_338_3900">
<rect width="255.275" height="32" fill="white"/>
</clipPath>
</defs>
</svg>
