<svg width="160" height="20" viewBox="0 0 160 20" fill="none" xmlns="http://www.w3.org/2000/svg">
<g clip-path="url(#clip0_338_2742)">
<path d="M69.42 8.63674H72.1863V5.34296H69.42V1.6457H65.699V5.34296H64.0139V8.63674H65.699V16.3055C65.699 19.2222 67.4843 19.7496 70.401 19.7496C70.9284 19.7496 71.6325 19.6995 72.0861 19.6494V16.4822C71.8593 16.5059 71.5587 16.5323 71.1315 16.5323C69.4464 16.5323 69.4226 15.2243 69.4226 14.4701V8.63674H69.42ZM55.6409 5.31923C54.4094 5.31923 52.8746 5.87302 51.9437 6.80129V5.56975H48.1963V19.3989H51.9437V12.0808C51.8672 9.06395 53.5523 8.43632 54.5835 8.43632C56.0418 8.43632 57.247 9.09032 57.247 11.229V19.4015H61.0945V11.229C61.0945 7.63199 59.6362 5.31923 55.6383 5.31923H55.6409ZM37.9405 8.63674C39.826 8.63674 41.0576 10.0186 41.2079 11.2765H34.2933C34.4436 9.86828 35.778 8.63674 37.9378 8.63674H37.9405ZM37.9669 19.7496C42.0149 19.7496 43.874 17.2865 44.4278 16.5323L41.5112 14.8472C41.084 15.3245 40.0528 16.4558 37.9669 16.4558C37.2126 16.4558 34.6467 16.2053 34.1958 13.9426H45.1082C45.1082 13.9426 45.1821 13.2649 45.1821 12.2074C45.0581 7.75857 41.5112 5.34296 37.9669 5.34296C35.3772 5.34296 30.4484 6.8514 30.4484 12.5344C30.4484 18.2174 35.277 19.7496 37.9669 19.7496ZM22.2522 20.0001L29.6678 5.61722H25.4695L22.2522 12.3815L19.0349 5.61722H14.8603L22.2522 20.0001ZM3.97416 4.46216H13.9294V1.01807H0V19.3989H13.9294V15.9548H3.97416V12.0307H12.7743V8.56026H3.97416V4.46216Z" fill="#D9D9D9"/>
<path d="M155.925 12.4819C155.925 14.8975 154.466 16.3796 152.127 16.3796C149.788 16.3796 148.332 14.6707 148.332 12.4819C148.332 10.2931 149.74 8.56051 152.127 8.56051C154.514 8.56051 155.925 10.1955 155.925 12.4819ZM155.774 19.3965H159.495V5.56737H155.774V6.99933C155.07 6.06842 153.585 5.26409 151.573 5.26409C147.198 5.26409 144.632 8.50777 144.632 12.4793C144.632 16.4508 147.196 19.6945 151.573 19.6945C153.535 19.6945 155.194 18.7899 155.774 18.0093V19.3912V19.3965ZM137.797 19.3965H141.568V5.59374H137.797V19.3965ZM141.745 2.07317C141.745 0.968208 140.814 0.0610352 139.682 0.0610352C138.551 0.0610352 137.57 0.965571 137.57 2.07317C137.57 3.18076 138.525 4.10903 139.682 4.10903C140.84 4.10903 141.745 3.2045 141.745 2.07317ZM128.496 5.31684C127.261 5.31684 125.729 5.87064 124.798 6.79891V5.56737H121.054V19.3965H124.798V12.0784C124.722 9.06156 126.407 8.43393 127.438 8.43393C128.897 8.43393 130.104 9.08794 130.104 11.2266V19.3991H133.952V11.2266C133.952 7.6296 132.494 5.31684 128.496 5.31684ZM113.786 12.4819C113.786 14.8975 112.327 16.3796 109.988 16.3796C107.649 16.3796 106.191 14.6707 106.191 12.4819C106.191 10.2931 107.599 8.56051 109.988 8.56051C112.378 8.56051 113.786 10.1955 113.786 12.4819ZM113.635 19.3965H117.356V5.56737H113.635V6.99933C112.931 6.06842 111.447 5.26409 109.437 5.26409C105.062 5.26409 102.496 8.50777 102.496 12.4793C102.496 16.4508 105.059 19.6945 109.437 19.6945C111.396 19.6945 113.058 18.7899 113.635 18.0093V19.3912V19.3965ZM99.1496 0.440782L89.5214 11.3031L79.8906 0.440782V19.3991H83.8885V10.6227L89.5214 17.1602L95.1517 10.6227V19.3991H99.1496V0.440782Z" fill="#E6001B"/>
<path d="M157.914 0C157.384 0 156.939 0.208333 156.646 0.537975C156.374 0.200422 155.979 0 155.377 0C155.056 0 154.61 0.187236 154.338 0.429852V0.0712025H153.27V4.01108H154.338L154.346 1.92511C154.346 1.0654 154.776 0.886076 155.106 0.886076C155.507 0.886076 155.865 1.07331 155.865 1.68249V4.01108H156.947V1.81962C156.954 1.06804 157.405 0.888713 157.698 0.888713C158.115 0.888713 158.466 1.07595 158.466 1.68513V4.01371H159.547V1.68513C159.547 0.659283 159.046 0 157.914 0ZM150.24 0.938819C150.85 0.938819 151.322 1.41878 151.322 2.04905C151.322 2.67933 150.85 3.17511 150.24 3.17511C149.631 3.17511 149.156 2.70306 149.156 2.04905C149.156 1.39504 149.636 0.938819 150.24 0.938819ZM150.24 4.10601C151.414 4.10601 152.39 3.18829 152.39 2.04905C152.39 0.90981 151.414 0 150.24 0C149.067 0 148.104 0.925633 148.104 2.04905C148.104 3.17247 149.064 4.10601 150.24 4.10601ZM145.668 4.11392C146.569 4.11392 147.194 3.72627 147.574 2.95359L146.664 2.59494C146.414 3.00369 146.055 3.16719 145.668 3.16719C145.045 3.16719 144.586 2.70042 144.586 2.05696C144.586 1.4135 145.037 0.94673 145.66 0.94673C146.047 0.94673 146.393 1.13924 146.627 1.53481L147.595 1.15506C147.194 0.416667 146.493 0.00791139 145.66 0.00791139C144.483 0.00791139 143.516 0.925633 143.516 2.05696C143.516 3.18829 144.491 4.11392 145.665 4.11392H145.668Z" fill="#D9D9D9"/>
</g>
<defs>
<clipPath id="clip0_338_2742">
<rect width="159.547" height="20" fill="white"/>
</clipPath>
</defs>
</svg>
