<svg width="16" height="4" viewBox="0 0 16 4" fill="none"
                                    xmlns="http://www.w3.org/2000/svg">
                                    <path
                                        d="M1.72679 0.841127C1.57435 0.779194 1.41111 0.748225 1.2466 0.750012C1.00056 0.75068 0.760157 0.823949 0.555538 0.960671C0.349977 1.09802 0.189761 1.29325 0.0951511 1.52165C0.00054168 1.75006 -0.0242126 2.00139 0.024019 2.24387C0.0722505 2.48635 0.191301 2.70908 0.366117 2.88389C0.540932 3.05871 0.76366 3.17776 1.00614 3.22599C1.24861 3.27422 1.49995 3.24947 1.72835 3.15486C1.95676 3.06025 2.15199 2.90003 2.28934 2.69447C2.42606 2.48985 2.49933 2.24944 2.5 2.00339C2.50178 1.83889 2.47081 1.67566 2.40888 1.52322C2.34652 1.36972 2.25403 1.23028 2.13688 1.11313C2.01973 0.995975 1.88029 0.903487 1.72679 0.841127Z"
                                        fill="white" />
                                    <path
                                        d="M8.48069 0.842614C8.32713 0.779659 8.1625 0.748174 7.99657 0.750016C7.75126 0.750713 7.51154 0.823578 7.30731 0.959571C7.10212 1.0962 6.94192 1.29045 6.84684 1.51789C6.75176 1.74532 6.72605 1.9958 6.77295 2.23781C6.81985 2.47982 6.93725 2.70256 7.1104 2.87802C7.28356 3.05348 7.50472 3.17383 7.74609 3.22393C7.98746 3.27402 8.23825 3.25163 8.46693 3.15958C8.69561 3.06752 8.89196 2.9099 9.03129 2.70654C9.16998 2.50413 9.24601 2.26541 9.24996 2.02012C9.254 1.85423 9.2247 1.6892 9.16378 1.53481C9.10244 1.37935 9.01031 1.2379 8.89293 1.11895C8.77554 1 8.63532 0.906006 8.48069 0.842614Z"
                                        fill="white" />
                                    <path
                                        d="M14.7466 0.750016C14.9125 0.748174 15.0771 0.779659 15.2307 0.842614C15.3853 0.906005 15.5255 0.999999 15.6429 1.11895C15.7603 1.2379 15.8524 1.37936 15.9138 1.53481C15.9747 1.68919 16.004 1.85423 16 2.02012C15.996 2.2654 15.92 2.50413 15.7813 2.70654C15.642 2.9099 15.4456 3.06752 15.2169 3.15958C14.9883 3.25163 14.7375 3.27402 14.4961 3.22393C14.2547 3.17383 14.0336 3.05348 13.8604 2.87802C13.6873 2.70256 13.5698 2.47982 13.523 2.23781C13.4761 1.9958 13.5018 1.74533 13.5968 1.51789C13.6919 1.29045 13.8521 1.0962 14.0573 0.959571C14.2615 0.823579 14.5013 0.750713 14.7466 0.750016Z"
                                        fill="white" />
                                </svg>
