<svg width="28" height="30" viewBox="0 0 28 30" fill="none" xmlns="http://www.w3.org/2000/svg">
<path d="M9.45333 17.0134L18.56 22.32M18.5467 7.68002L9.45333 12.9867M26 5.66669C26 7.87583 24.2091 9.66669 22 9.66669C19.7909 9.66669 18 7.87583 18 5.66669C18 3.45755 19.7909 1.66669 22 1.66669C24.2091 1.66669 26 3.45755 26 5.66669ZM10 15C10 17.2092 8.20914 19 6 19C3.79086 19 2 17.2092 2 15C2 12.7909 3.79086 11 6 11C8.20914 11 10 12.7909 10 15ZM26 24.3334C26 26.5425 24.2091 28.3334 22 28.3334C19.7909 28.3334 18 26.5425 18 24.3334C18 22.1242 19.7909 20.3334 22 20.3334C24.2091 20.3334 26 22.1242 26 24.3334Z" stroke="white" stroke-width="3" stroke-linecap="round" stroke-linejoin="round"/>
</svg>
