<svg width="66" height="20" viewBox="0 0 66 20" fill="none" xmlns="http://www.w3.org/2000/svg">
<path fill-rule="evenodd" clip-rule="evenodd" d="M10.16 0C4.552 0 0 4.464 0 9.964C0 15.476 4.552 19.929 10.16 19.929C15.78 19.929 20.32 15.464 20.32 9.964C20.334 4.464 15.78 0 10.16 0ZM14.822 14.381C14.7322 14.5229 14.5901 14.6237 14.4265 14.6615C14.2629 14.6993 14.0909 14.6711 13.948 14.583C11.556 13.155 8.558 12.833 5.013 13.619C4.673 13.69 4.333 13.489 4.261 13.155C4.24307 13.0755 4.24112 12.9931 4.25525 12.9128C4.26937 12.8325 4.29931 12.7558 4.34331 12.6872C4.38731 12.6185 4.4445 12.5593 4.51156 12.5129C4.57863 12.4665 4.65424 12.4339 4.734 12.417C8.606 11.547 11.933 11.917 14.604 13.524C14.919 13.702 15.016 14.084 14.822 14.381ZM16.072 11.667C15.9588 11.8432 15.7818 11.9688 15.5782 12.0177C15.3745 12.0665 15.1598 12.0347 14.979 11.929C12.249 10.274 8.085 9.798 4.856 10.762C4.431 10.881 3.994 10.655 3.872 10.25C3.84219 10.1517 3.83243 10.0483 3.84328 9.94614C3.85413 9.84395 3.88538 9.74498 3.93517 9.65509C3.98497 9.5652 4.05229 9.48621 4.13317 9.42282C4.21404 9.35942 4.30682 9.31289 4.406 9.286C8.096 8.19 12.686 8.714 15.829 10.607C16.181 10.821 16.303 11.297 16.072 11.667ZM16.182 8.833C12.903 6.93 7.501 6.75 4.37 7.68C4.12997 7.75254 3.87108 7.72829 3.64869 7.61243C3.42631 7.49657 3.25809 7.29829 3.18 7.06C3.023 6.572 3.314 6.049 3.812 5.894C7.405 4.822 13.377 5.037 17.14 7.227C17.2462 7.28813 17.3391 7.36986 17.4133 7.4674C17.4875 7.56494 17.5415 7.67631 17.572 7.79499C17.6026 7.91367 17.6091 8.03726 17.5913 8.15849C17.5734 8.27973 17.5315 8.39618 17.468 8.501C17.4059 8.60797 17.3232 8.70155 17.2247 8.7763C17.1262 8.85106 17.0138 8.90551 16.8941 8.93649C16.7744 8.96746 16.6497 8.97436 16.5273 8.95676C16.4049 8.93917 16.2872 8.89744 16.181 8.834L16.182 8.833ZM27.652 9.202C25.892 8.798 25.589 8.5 25.589 7.892C25.589 7.322 26.135 6.94 26.949 6.94C27.737 6.94 28.526 7.238 29.352 7.833C29.376 7.857 29.412 7.857 29.437 7.857C29.473 7.857 29.497 7.833 29.51 7.81L30.372 6.619C30.3805 6.60718 30.3867 6.5938 30.39 6.57961C30.3934 6.56542 30.3939 6.55071 30.3916 6.53632C30.3893 6.52193 30.3842 6.50813 30.3765 6.49572C30.3688 6.48331 30.3588 6.47253 30.347 6.464C29.364 5.69 28.259 5.321 26.973 5.321C25.079 5.321 23.756 6.441 23.756 8.036C23.756 9.75 24.896 10.357 26.876 10.821C28.551 11.202 28.842 11.524 28.842 12.083C28.842 12.714 28.272 13.107 27.349 13.107C26.329 13.107 25.492 12.774 24.557 11.977C24.533 11.952 24.497 11.952 24.472 11.952C24.436 11.952 24.412 11.964 24.399 11.988L23.44 13.108C23.404 13.155 23.404 13.226 23.452 13.262C24.521 14.205 25.8995 14.7219 27.325 14.714C29.364 14.714 30.687 13.619 30.687 11.929C30.663 10.5 29.801 9.714 27.652 9.202ZM35.288 7.5C34.402 7.5 33.673 7.845 33.078 8.548V7.762C33.0779 7.74782 33.0749 7.7338 33.0694 7.72075C33.0638 7.70769 33.0558 7.69586 33.0457 7.68592C33.0355 7.67599 33.0236 7.66814 33.0104 7.66284C32.9973 7.65753 32.9832 7.65487 32.969 7.655H31.403C31.343 7.655 31.294 7.702 31.294 7.762V16.524C31.294 16.584 31.343 16.631 31.404 16.631H32.969C33.029 16.631 33.079 16.583 33.079 16.524V13.762C33.673 14.417 34.402 14.738 35.288 14.738C36.927 14.738 38.602 13.5 38.602 11.119C38.602 8.75 36.927 7.5 35.288 7.5ZM36.768 11.119C36.768 12.333 36.004 13.167 34.924 13.167C33.844 13.167 33.042 12.286 33.042 11.119C33.042 9.952 33.855 9.071 34.924 9.071C35.992 9.071 36.769 9.929 36.769 11.119H36.768ZM42.862 7.5C40.75 7.5 39.087 9.107 39.087 11.143C39.087 13.167 40.738 14.75 42.838 14.75C44.962 14.75 46.625 13.155 46.625 11.119C46.625 9.095 44.975 7.5 42.862 7.5ZM42.862 13.19C41.734 13.19 40.884 12.298 40.884 11.131C40.884 9.952 41.709 9.095 42.838 9.095C43.968 9.095 44.828 9.988 44.828 11.167C44.828 12.333 44.003 13.19 42.862 13.19ZM51.153 7.643H49.43V5.917C49.4299 5.90273 49.4269 5.88863 49.4213 5.87551C49.4157 5.86239 49.4075 5.85051 49.3973 5.84057C49.3871 5.83062 49.375 5.82279 49.3617 5.81755C49.3484 5.8123 49.3343 5.80974 49.32 5.81H47.754C47.694 5.81 47.645 5.857 47.645 5.917V7.655H46.893C46.832 7.655 46.783 7.702 46.783 7.762V9.083C46.783 9.143 46.832 9.19 46.893 9.19H47.645V12.619C47.645 14 48.349 14.702 49.733 14.702C50.291 14.702 50.765 14.583 51.202 14.345C51.238 14.321 51.262 14.285 51.262 14.25V12.988C51.262 12.952 51.238 12.917 51.214 12.893C51.1981 12.8812 51.1788 12.8747 51.159 12.8747C51.1392 12.8747 51.1199 12.8812 51.104 12.893C50.819 13.0392 50.5023 13.1128 50.182 13.107C49.672 13.107 49.454 12.881 49.454 12.381V9.202H51.178C51.238 9.202 51.287 9.155 51.287 9.095V7.762C51.263 7.702 51.214 7.642 51.153 7.642V7.643ZM57.174 7.655V7.44C57.174 6.81 57.417 6.536 57.964 6.536C58.291 6.536 58.558 6.596 58.849 6.69C58.886 6.702 58.922 6.69 58.959 6.679C58.983 6.655 59.007 6.619 59.007 6.583V5.286C59.0061 5.26142 58.9974 5.23776 58.9821 5.21851C58.9668 5.19925 58.9457 5.1854 58.922 5.179C58.4972 5.05192 58.0553 4.99153 57.612 5C56.155 5 55.39 5.798 55.39 7.321V7.643H54.637C54.577 7.643 54.516 7.69 54.516 7.75V9.083C54.516 9.143 54.564 9.19 54.637 9.19H55.39V14.476C55.39 14.536 55.438 14.583 55.499 14.583H57.065C57.125 14.583 57.175 14.536 57.175 14.476V9.202H58.643L60.889 14.488C60.634 15.048 60.379 15.155 60.039 15.155C59.759 15.155 59.469 15.071 59.177 14.917C59.153 14.905 59.117 14.905 59.08 14.905C59.056 14.917 59.02 14.94 59.007 14.965L58.473 16.107C58.449 16.167 58.473 16.227 58.522 16.25C59.034 16.5338 59.6117 16.6776 60.197 16.667C61.362 16.667 61.993 16.131 62.564 14.714L65.295 7.81C65.3021 7.79242 65.3048 7.77334 65.3027 7.75448C65.3006 7.73562 65.2938 7.71758 65.283 7.702C65.2722 7.68657 65.2576 7.67416 65.2406 7.66594C65.2236 7.65771 65.2048 7.65395 65.186 7.655H63.547C63.499 7.655 63.45 7.69 63.437 7.726L61.763 12.416L59.966 7.726C59.954 7.679 59.906 7.655 59.856 7.655H57.174ZM53.69 7.643H52.124C52.064 7.643 52.015 7.69 52.015 7.75V14.476C52.015 14.536 52.064 14.583 52.125 14.583H53.69C53.751 14.583 53.8 14.536 53.8 14.476V7.762C53.8 7.702 53.751 7.642 53.69 7.642V7.643ZM52.901 4.583C52.282 4.583 51.772 5.083 51.772 5.69C51.772 6.298 52.282 6.798 52.902 6.798C53.52 6.798 54.03 6.298 54.03 5.69C54.03 5.083 53.533 4.583 52.901 4.583Z" fill="white"/>
</svg>
