<svg width="32" height="32" viewBox="0 0 32 32" fill="none" xmlns="http://www.w3.org/2000/svg">
<path fill-rule="evenodd" clip-rule="evenodd" d="M25.4646 14.1844C20.3071 11.1215 11.7999 10.8398 6.87647 12.3341C6.08586 12.5739 5.24978 12.1276 5.01019 11.337C4.7706 10.546 5.21653 9.71047 6.00771 9.47012C11.6595 7.75458 21.0547 8.08588 26.9921 11.6104C27.7034 12.0326 27.9367 12.9511 27.515 13.661C27.0932 14.3722 26.174 14.6066 25.4646 14.1844ZM25.2957 18.7209C24.934 19.308 24.1663 19.492 23.58 19.1317C19.2801 16.4885 12.7235 15.723 7.63651 17.2671C6.97677 17.4664 6.27998 17.0944 6.07974 16.436C5.88085 15.7763 6.25304 15.0808 6.91143 14.8802C12.7227 13.1169 19.9467 13.9709 24.8853 17.0059C25.4716 17.367 25.6562 18.1351 25.2957 18.7209ZM23.3379 23.0777C23.0505 23.549 22.4365 23.6969 21.9668 23.4095C18.2094 21.1132 13.4803 20.5944 7.91087 21.8667C7.37418 21.9898 6.8394 21.6533 6.71693 21.1168C6.59389 20.5801 6.92901 20.0453 7.46685 19.9229C13.5617 18.5295 18.7899 19.1292 23.0072 21.7062C23.4774 21.9934 23.6254 22.6076 23.3379 23.0777ZM16.0002 0C7.16363 0 0 7.16325 0 15.9998C0 24.8369 7.16363 32 16.0002 32C24.8369 32 32.0002 24.8369 32.0002 15.9998C32.0002 7.16325 24.8369 0 16.0002 0Z" fill="#1ED760"/>
</svg>
