<svg width="200" height="200" viewBox="0 0 200 200" fill="none" xmlns="http://www.w3.org/2000/svg">
<path d="M27.0541 131.042C24.9334 129.105 21.6448 129.252 19.7064 131.373L4.63336 147.873C2.69709 149.994 2.84418 153.282 4.96485 155.221L51.0423 197.316C53.1629 199.252 56.4515 199.105 58.39 196.984L73.4652 180.484C75.4015 178.364 75.2544 175.075 73.1337 173.137L27.0541 131.042Z" fill="#1E1E1E"/>
<path d="M71.1139 62.0035C74.0842 62.0035 76.7449 63.7114 78.1082 66.348C78.3804 66.8727 78.6658 67.3952 78.9643 67.9133C79.2629 68.4314 79.5724 68.9385 79.893 69.4368C81.4933 71.9351 81.6426 75.0941 80.1564 77.667C78.0006 81.4013 79.2805 86.1761 83.0125 88.3319L93.3524 94.3031C97.0866 96.4589 101.861 95.179 104.017 91.447L104.019 91.4426C105.482 88.9092 108.237 87.4164 111.159 87.5591C112.43 87.6206 113.703 87.6228 114.978 87.5591C117.896 87.4186 120.645 88.9136 122.104 91.4448L122.107 91.447C124.262 95.1812 129.037 96.4611 132.771 94.3031L143.111 88.3319C146.846 86.1761 148.125 81.4013 145.967 77.667L145.965 77.6648C144.505 75.138 144.582 72.0075 146.165 69.5532C146.857 68.4775 147.493 67.3754 148.075 66.2426C149.412 63.6412 152.084 62.0013 155.008 62.0013H155.012C159.324 62.0013 162.821 58.5063 162.821 54.1926V42.2501C162.821 37.9385 159.326 34.4413 155.012 34.4413C152.042 34.4413 149.381 32.7334 148.018 30.0968C147.746 29.5699 147.46 29.0496 147.162 28.5316C146.863 28.0135 146.554 27.5063 146.233 27.008C144.633 24.5097 144.483 21.3507 145.97 18.7778C148.125 15.0436 146.846 10.2687 143.114 8.11295L132.774 2.1417C129.039 -0.0140967 124.265 1.26577 122.109 4.9978L122.104 5.00658C120.642 7.53997 117.887 9.03279 114.965 8.89009C113.694 8.82862 112.421 8.82643 111.145 8.89009C108.228 9.03059 105.479 7.53558 104.019 5.00439L104.017 5.00219C101.861 1.26797 97.0844 -0.0119014 93.3524 2.14609L83.0125 8.11734C79.2783 10.2731 77.9984 15.0501 80.1564 18.7822L80.1586 18.7844C81.6185 21.3112 81.5416 24.4417 79.9588 26.896C79.2673 27.9717 78.6306 29.0738 78.0489 30.2066C76.7119 32.808 74.0403 34.4479 71.1161 34.4479H71.1117C66.8001 34.4479 63.303 37.9429 63.303 42.2566V54.1991C63.3052 58.5085 66.8023 62.0035 71.1139 62.0035ZM98.9263 23.7436C112.447 15.9392 129.733 20.5692 137.537 34.0901C145.344 47.611 140.712 64.8969 127.191 72.7012C113.67 80.5078 96.3841 75.8757 88.5798 62.3547C80.7733 48.836 85.4076 31.5479 98.9263 23.7436Z" fill="#1E1E1E"/>
<path d="M108.21 59.694C106.393 59.694 104.917 61.167 104.917 62.987C104.917 64.8069 106.393 66.2799 108.21 66.2799H117.914C119.731 66.2799 121.207 64.8069 121.207 62.987C121.207 61.167 119.731 59.694 117.914 59.694H116.355V45.993C116.355 44.1731 114.88 42.7001 113.062 42.7001H108.21C106.393 42.7001 104.917 44.1731 104.917 45.993C104.917 47.813 106.393 49.286 108.21 49.286H109.769V59.694H108.21Z" fill="#1E1E1E"/>
<path d="M113.062 37.484C114.88 37.484 116.355 36.011 116.355 34.1911V33.4622C116.355 31.6423 114.88 30.1693 113.062 30.1693C111.244 30.1693 109.769 31.6423 109.769 33.4622V34.1911C109.769 36.011 111.244 37.484 113.062 37.484Z" fill="#1E1E1E"/>
<path d="M192.332 90.907C188.006 87.5569 181.852 87.9916 178.039 91.9146L147.607 117.879C148.87 121.36 149.943 125.299 149.943 127.079C149.943 134.743 143.757 140.991 136.113 141.085L92.0023 145.458C91.8926 145.471 91.7828 145.476 91.673 145.476C90.0002 145.476 88.5688 144.207 88.3998 142.508C88.2198 140.697 89.5414 139.083 91.3525 138.905L135.939 134.497C140.029 134.497 143.357 131.167 143.357 127.077C143.335 125.65 141.561 120.118 140.341 117.345C139 116.726 137.518 116.366 135.939 116.366H90.7159C69.1096 110.871 50.8402 115.914 35.3325 129.683L75.8185 166.669L77.8447 165.308C80.545 164.097 83.434 163.376 86.3801 163.376H124.44C136.668 163.376 148.308 158.123 156.395 148.951L193.812 106.518C197.922 101.864 197.241 94.7071 192.332 90.907Z" fill="#1E1E1E"/>
</svg>
