<svg width="22" height="25" viewBox="0 0 22 25" fill="none" xmlns="http://www.w3.org/2000/svg">
<path d="M16.1579 9.62428C17.7117 10.7344 19.6152 11.3876 21.671 11.3876V7.43354C21.282 7.43363 20.8939 7.39308 20.5132 7.31247V10.4249C18.4575 10.4249 16.5543 9.7717 15.0001 8.66163V16.7307C15.0001 20.7673 11.7261 24.0394 7.68771 24.0394C6.18089 24.0394 4.78036 23.5841 3.61694 22.8032C4.9448 24.1602 6.79659 25.002 8.84527 25.002C12.8839 25.002 16.158 21.73 16.158 17.6932V9.62428H16.1579ZM17.5862 5.6351C16.7921 4.76801 16.2707 3.64745 16.1579 2.40863V1.90005H15.0607C15.3369 3.4746 16.2789 4.81979 17.5862 5.6351ZM6.17123 19.7056C5.72757 19.1242 5.48781 18.413 5.48889 17.6817C5.48889 15.8355 6.98637 14.3386 8.83387 14.3386C9.17818 14.3385 9.52043 14.3912 9.84855 14.4952V10.4528C9.46509 10.4003 9.07808 10.378 8.69124 10.3862V13.5326C8.36287 13.4285 8.02046 13.3757 7.67607 13.376C5.82857 13.376 4.33117 14.8728 4.33117 16.7192C4.33117 18.0247 5.07966 19.155 6.17123 19.7056Z" fill="#EE1D52"/>
<path d="M15 8.66155C16.5542 9.77161 18.4574 10.4248 20.5131 10.4248V7.31239C19.3656 7.06809 18.3498 6.46875 17.586 5.6351C16.2787 4.81971 15.3367 3.47452 15.0606 1.90005H12.1786V17.6931C12.1721 19.5342 10.6771 21.025 8.83359 21.025C7.74723 21.025 6.7821 20.5074 6.17087 19.7056C5.07938 19.155 4.33088 18.0246 4.33088 16.7193C4.33088 14.873 5.82829 13.3761 7.67579 13.3761C8.02976 13.3761 8.37093 13.4312 8.69096 13.5327V10.3862C4.72351 10.4682 1.53271 13.7083 1.53271 17.6931C1.53271 19.6824 2.3273 21.4857 3.61691 22.8033C4.78033 23.5841 6.18086 24.0395 7.68768 24.0395C11.7262 24.0395 15 20.7672 15 16.7307V8.66155H15Z" fill="#010101"/>
<path d="M20.5131 7.3124V6.47082C19.4784 6.47239 18.464 6.18276 17.586 5.63503C18.3632 6.48544 19.3865 7.07182 20.5131 7.3124ZM15.0606 1.90006C15.0342 1.74959 15.014 1.59812 15 1.44608V0.9375H11.0207V16.7307C11.0143 18.5716 9.51949 20.0624 7.67579 20.0624C7.13451 20.0624 6.62345 19.9339 6.17087 19.7057C6.78211 20.5074 7.74723 21.0249 8.8336 21.0249C10.677 21.0249 12.1721 19.5343 12.1786 17.6931V1.90006H15.0606ZM8.69113 10.3862V9.49033C8.35863 9.44491 8.02341 9.42211 7.68777 9.42228C3.64896 9.42228 0.375 12.6944 0.375 16.7307C0.375 19.2612 1.66172 21.4913 3.617 22.8031C2.32738 21.4856 1.5328 19.6822 1.5328 17.6931C1.5328 13.7083 4.72351 10.4682 8.69113 10.3862Z" fill="#69C9D0"/>
</svg>
