<svg width="232" height="232" viewBox="0 0 232 232" fill="none" xmlns="http://www.w3.org/2000/svg">
<path d="M62.5609 14.7722C63.2732 14.7706 63.2732 14.7706 63.9998 14.7689C65.3119 14.7659 66.6241 14.7652 67.9363 14.765C69.3539 14.7643 70.7714 14.7615 72.189 14.759C75.2865 14.754 78.384 14.7517 81.4814 14.7501C83.4179 14.7491 85.3544 14.7475 87.2909 14.7458C92.659 14.7413 98.0272 14.7375 103.395 14.7362C103.91 14.7361 103.91 14.7361 104.436 14.736C104.78 14.7359 105.124 14.7358 105.478 14.7357C106.175 14.7356 106.873 14.7354 107.57 14.7352C107.915 14.7352 108.261 14.7351 108.618 14.735C114.215 14.7335 119.812 14.7271 125.41 14.7184C131.166 14.7096 136.921 14.705 142.677 14.7046C145.905 14.7042 149.133 14.7021 152.361 14.6954C155.11 14.6897 157.86 14.6878 160.61 14.6908C162.011 14.6923 163.411 14.692 164.812 14.6867C179.923 14.6335 192.722 18.1941 203.834 28.9073C212.742 38.0386 217.313 50.1535 217.273 62.8282C217.274 63.3049 217.275 63.7816 217.277 64.2727C217.281 65.5799 217.28 66.887 217.278 68.1942C217.277 69.6102 217.281 71.0262 217.283 72.4423C217.288 75.2103 217.289 77.9782 217.288 80.7462C217.287 82.9981 217.288 85.2499 217.289 87.5017C217.29 87.8231 217.29 88.1446 217.29 88.4758C217.291 89.1291 217.291 89.7823 217.292 90.4356C217.296 96.5508 217.295 102.666 217.292 108.781C217.291 114.364 217.295 119.947 217.302 125.53C217.309 131.276 217.312 137.021 217.311 142.767C217.31 145.987 217.311 149.208 217.316 152.428C217.321 155.17 217.321 157.912 217.317 160.653C217.314 162.05 217.314 163.446 217.318 164.842C217.363 179.94 213.796 192.732 203.093 203.834C194.112 212.595 182.069 217.317 169.58 217.27C169.102 217.271 168.625 217.272 168.134 217.273C166.824 217.276 165.513 217.275 164.203 217.273C162.785 217.271 161.366 217.274 159.948 217.276C157.174 217.279 154.401 217.278 151.628 217.276C149.372 217.274 147.117 217.274 144.861 217.275C144.539 217.275 144.217 217.275 143.886 217.275C143.232 217.275 142.578 217.276 141.924 217.276C135.801 217.278 129.678 217.276 123.555 217.272C118.309 217.268 113.064 217.269 107.819 217.272C101.717 217.276 95.6158 217.278 89.5143 217.276C88.8627 217.275 88.2112 217.275 87.5596 217.275C87.239 217.275 86.9185 217.275 86.5882 217.275C84.3376 217.274 82.0869 217.275 79.8362 217.277C77.0902 217.279 74.3443 217.278 71.5984 217.274C70.1994 217.272 68.8004 217.272 67.4014 217.274C65.8804 217.277 64.3594 217.274 62.8383 217.27C62.4025 217.271 61.9667 217.273 61.5176 217.275C57.3822 217.256 53.2964 216.76 49.3141 215.624C49.0347 215.545 48.7553 215.465 48.4675 215.384C45.6288 214.542 43.0119 213.364 40.3963 211.987C40.1728 211.871 39.9492 211.755 39.7188 211.635C36.5679 209.98 33.8103 208.041 31.1312 205.687C30.8235 205.433 30.5158 205.179 30.1988 204.917C21.328 197.385 16.192 185.945 14.8244 174.556C14.7292 172.899 14.7225 171.248 14.7278 169.589C14.7264 169.113 14.725 168.637 14.7235 168.147C14.7198 166.839 14.7205 165.532 14.7221 164.225C14.723 162.809 14.7197 161.394 14.7169 159.978C14.7122 157.21 14.7115 154.442 14.7124 151.674C14.7131 149.422 14.7124 147.17 14.7108 144.919C14.7106 144.597 14.7104 144.276 14.7102 143.945C14.7097 143.291 14.7093 142.638 14.7088 141.985C14.7048 135.869 14.7056 129.753 14.7078 123.637C14.7098 118.055 14.7056 112.472 14.6985 106.889C14.6913 101.144 14.6883 95.3988 14.6897 89.6536C14.6904 86.4333 14.6895 83.213 14.6842 79.9927C14.6798 77.2507 14.6793 74.5086 14.6838 71.7665C14.686 70.3703 14.6864 68.9742 14.6819 67.578C14.6413 53.9631 17.0548 41.6817 26.3133 31.131C26.673 30.6974 26.673 30.6974 27.04 30.2551C29.8806 26.8986 33.3953 24.2649 37.0609 21.8658C37.3862 21.6527 37.7115 21.4397 38.0467 21.2201C45.4696 16.6255 53.9148 14.7659 62.5609 14.7722ZM157.879 37.8019C157.478 38.3213 157.084 38.8465 156.697 39.377C153.912 42.9656 150.582 45.4793 146.019 46.3259C140.634 46.7034 136.196 45.7407 131.461 43.0541C130.258 42.5352 129.526 42.4037 128.23 42.6198C124.534 46.081 125.019 54.5474 124.824 59.3C124.687 67.6055 126.139 75.8469 128.601 83.7572C128.226 83.7304 127.851 83.7037 127.464 83.6761C126.247 83.5942 125.03 83.5416 123.81 83.4966C122.276 83.4373 120.774 83.2973 119.25 83.1144C111.102 82.3947 104.228 85.0835 96.6783 87.9232C96.2451 88.0849 95.812 88.2466 95.3657 88.4131C94.5484 88.7206 93.7334 89.034 92.9212 89.3546C89.2201 90.7602 86.0895 90.5776 82.2518 89.8722C81.9067 89.8102 81.5617 89.7482 81.2062 89.6844C77.9687 89.057 74.8715 88.0692 71.769 86.9602C68.8282 85.9406 65.919 85.3319 62.9339 86.5599C62.6534 86.6674 62.373 86.7749 62.0841 86.8856C59.596 88.4248 58.0238 90.697 56.5409 93.1613C56.1538 93.7889 55.7663 94.4162 55.3784 95.0433C55.1738 95.3761 54.9691 95.7088 54.7583 96.0516C53.6049 97.9117 52.4192 99.7511 51.2366 101.593C50.7298 102.384 50.2232 103.174 49.7165 103.965C49.4627 104.361 49.2089 104.757 48.9474 105.165C46.6884 108.69 46.6884 108.69 44.4327 112.217C43.2104 114.13 41.9842 116.041 40.7496 117.946C40.2767 118.679 39.8037 119.413 39.3308 120.146C39.0033 120.648 39.0033 120.648 38.6691 121.16C37.1916 123.458 36.218 125.373 36.1807 128.161C36.1649 128.692 36.1649 128.692 36.1488 129.233C36.5636 132.196 38.0878 134.347 40.072 136.499C40.4988 136.98 40.9253 137.461 41.3518 137.943C41.9683 138.629 42.5871 139.312 43.2114 139.992C43.7462 140.575 44.272 141.165 44.7973 141.757C45.1021 142.09 45.4069 142.422 45.7209 142.765C46.5406 144.161 46.3309 144.835 45.9554 146.39C45.8922 146.625 45.829 146.86 45.7639 147.102C45.2719 148.951 45.0898 150.638 45.0984 152.551C45.0924 152.82 45.0865 153.088 45.0803 153.365C45.0784 155.443 45.5321 156.916 46.8848 158.556C48.5584 160.028 50.0555 160.554 52.2558 160.843C52.0264 161.111 51.7971 161.378 51.5609 161.654C50.2378 163.405 49.9485 164.786 49.8613 166.931C50.3566 169.697 52.067 171.646 54.0161 173.56C54.2321 173.785 54.448 174.009 54.6705 174.241C56.5479 176.112 58.5303 177.249 61.2661 177.266C61.9426 177.392 61.9426 177.392 62.6327 177.521C63.0245 178.251 63.3924 178.994 63.7446 179.744C64.7811 181.049 65.9324 182.243 67.08 183.45C67.482 183.875 67.482 183.875 67.8922 184.309C70.3724 186.864 72.0368 187.715 75.604 187.898C75.8486 187.898 76.0932 187.898 76.3452 187.898C76.7868 188.429 76.7868 188.429 77.2949 189.172C79.2311 191.824 81.578 194.777 84.8692 195.68C87.3661 196.061 89.0185 195.831 91.1204 194.439C92.9192 193.047 94.4173 191.313 95.9534 189.644C96.2183 189.367 96.4832 189.089 96.7561 188.804C96.9915 188.55 97.2269 188.296 97.4694 188.034C98.211 187.527 98.211 187.527 99.154 187.599C100.376 188 101.497 188.557 102.635 189.149C103.158 189.415 103.68 189.68 104.203 189.946C104.486 190.091 104.77 190.237 105.062 190.386C106.821 191.285 108.584 192.175 110.348 193.063C110.701 193.243 111.054 193.422 111.418 193.607C111.751 193.775 112.084 193.943 112.427 194.116C112.723 194.266 113.019 194.415 113.324 194.57C115.994 195.768 119.643 195.813 122.416 194.939C125.818 193.351 127.531 190.805 128.973 187.437C129.384 186.48 129.384 186.48 129.342 185.674C129.663 185.796 129.984 185.919 130.315 186.045C132.933 186.78 136.245 186.974 138.769 185.859C141.15 184.403 142.848 182.271 143.615 179.591C143.975 177.682 144.079 175.752 144.166 173.815C144.541 173.784 144.915 173.754 145.301 173.722C147.54 173.384 149.113 172.384 150.536 170.665C152.944 167.22 153.503 163.089 153.431 158.99C153.867 158.96 154.303 158.929 154.752 158.898C157.327 158.562 159.141 157.295 160.736 155.303C163.082 151.572 162.377 147.766 161.457 143.714C161.337 143.204 161.337 143.204 161.214 142.684C161.665 142.554 162.116 142.424 162.581 142.29C168.483 140.295 175.132 135.992 178.054 130.315C178.679 128.865 179.071 127.736 179.119 126.169C179.133 125.878 179.147 125.587 179.161 125.287C178.657 121.663 176.473 118.617 174.517 115.619C174.321 115.306 174.124 114.993 173.922 114.671C173.741 114.392 173.56 114.113 173.374 113.825C173.074 113.035 173.074 113.035 173.329 112.244C173.91 111.417 174.628 110.865 175.413 110.238C176.623 109.197 177.603 107.95 178.633 106.735C178.939 106.391 179.245 106.048 179.561 105.694C183.806 100.893 187.124 95.524 189.751 89.6869C189.876 89.4125 190 89.1382 190.129 88.8556C194.125 79.9103 195.84 70.4655 195.796 60.71C195.796 60.4102 195.796 60.1104 195.795 59.8015C196.139 50.6249 196.139 50.6249 192.716 42.6198C190.814 42.3841 189.498 42.9914 187.852 43.8474C183.044 46.1925 177.594 47.4772 172.356 45.7236C168.642 44.1435 166.043 41.7557 163.531 38.6358C162.335 36.8893 162.335 36.8893 160.542 36.2037C159.075 36.3476 158.839 36.7237 157.879 37.8019Z" fill="#1E1E1E"/>
<path d="M69.4412 91.3885C70.3404 91.6847 71.2221 92.0119 72.1062 92.3506C76.5095 93.9371 81.011 94.8009 85.6102 95.6166C85.3611 97.5693 84.7776 99.3133 84.1205 101.157C84.0094 101.473 83.8982 101.789 83.7838 102.115C83.4291 103.123 83.072 104.13 82.7148 105.137C82.4789 105.806 82.2432 106.476 82.0076 107.145C80.9647 110.105 79.9206 113.063 78.8106 115.999C78.4137 117.217 78.3922 117.793 78.9392 118.965C80.7726 121.069 82.8074 122.636 85.6102 123.042C89.1741 123.254 91.9683 121.95 94.6698 119.689C96.7944 117.658 98.7429 115.306 100.064 112.665C100.561 112.677 100.561 112.677 101.069 112.691C105.05 112.75 108.216 112.373 111.839 110.703C112.816 110.393 113.188 110.486 114.147 110.811C114.76 111.225 114.76 111.225 115.367 111.745C115.598 111.939 115.828 112.132 116.065 112.331C116.311 112.541 116.557 112.75 116.811 112.966C119.881 115.518 123.075 117.836 126.377 120.077C126.597 120.228 126.818 120.378 127.045 120.534C129.666 122.317 132.357 123.845 135.179 125.288C137.814 126.642 140.113 128.077 142.313 130.083C142.602 130.337 142.89 130.59 143.187 130.852C144.141 131.697 145.081 132.556 146.019 133.419C146.415 133.78 146.81 134.14 147.206 134.501C156.817 143.29 156.817 143.29 157.23 148.241C157.297 149.945 157.328 151.196 156.558 152.736C155.219 153.767 153.918 154.236 152.215 154.11C150.827 153.685 149.756 152.902 148.59 152.065C148.204 151.794 148.204 151.794 147.811 151.517C147.254 151.126 146.698 150.733 146.144 150.339C144.981 149.515 143.813 148.7 142.645 147.884C141.719 147.236 140.792 146.587 139.866 145.938C137.665 144.395 135.461 142.855 133.256 141.317C132.894 141.064 132.532 140.81 132.159 140.55C131.818 140.312 131.478 140.075 131.127 139.83C130.827 139.621 130.526 139.411 130.217 139.195C128.117 137.678 128.117 137.678 125.636 137.495C124.887 137.842 124.887 137.842 124.524 138.607C124.514 139.845 124.524 140.801 125.398 141.746C126.112 142.294 126.845 142.781 127.605 143.263C128.182 143.649 128.759 144.035 129.336 144.421C129.64 144.621 129.944 144.82 130.257 145.026C131.835 146.074 133.377 147.173 134.924 148.266C136.959 149.692 138.999 151.113 141.048 152.518C141.544 152.859 142.039 153.202 142.532 153.547C143.58 154.278 144.607 154.953 145.727 155.572C146.739 156.152 147.489 156.617 148.243 157.508C149.056 160.64 148.075 164.26 146.76 167.144C146.129 168.022 146.129 168.022 145.278 168.626C143.722 168.861 142.926 168.76 141.543 167.998C141.155 167.701 140.767 167.404 140.367 167.097C140.149 166.933 139.93 166.769 139.705 166.6C139.224 166.238 138.744 165.874 138.267 165.508C136.881 164.452 135.472 163.427 134.067 162.395C133.468 161.953 132.869 161.511 132.27 161.069C130.473 159.744 128.671 158.426 126.863 157.114C126.597 156.92 126.331 156.726 126.057 156.526C124.786 155.606 123.501 154.707 122.187 153.848C121.955 153.696 121.722 153.543 121.482 153.386C120.75 152.965 120.75 152.965 119.544 153.084C118.54 153.328 118.54 153.328 118.224 154.173C118.038 155.237 118.038 155.237 118.224 156.396C119.461 157.796 120.842 158.851 122.37 159.917C122.833 160.243 123.296 160.569 123.76 160.896C124.004 161.067 124.249 161.239 124.501 161.416C126.117 162.556 127.723 163.712 129.317 164.883C130.828 165.99 132.352 167.051 133.927 168.064C138.694 171.206 138.694 171.206 139.458 173.243C139.488 174.535 139.332 175.54 138.978 176.78C138.9 177.111 138.822 177.442 138.742 177.783C138.338 179.228 137.935 180.258 136.754 181.227C133.639 182.092 130.59 181.012 127.825 179.48C126.687 178.739 125.58 177.967 124.478 177.173C123.873 176.752 123.269 176.331 122.665 175.91C121.316 174.967 119.977 174.009 118.639 173.05C117.985 172.582 117.33 172.116 116.673 171.652C116.087 171.237 115.504 170.817 114.926 170.39C113.271 169.22 112.172 168.682 110.07 168.997C109.232 169.69 109.232 169.69 109.167 170.78C109.385 172.367 109.999 172.756 111.182 173.815C111.993 174.395 112.8 174.945 113.637 175.482C114.127 175.803 114.616 176.124 115.105 176.445C115.366 176.616 115.628 176.787 115.897 176.964C117.455 177.992 118.998 179.041 120.54 180.092C120.844 180.298 121.149 180.504 121.463 180.716C121.749 180.911 122.035 181.106 122.329 181.306C122.583 181.479 122.837 181.651 123.098 181.829C123.763 182.324 124.326 182.85 124.895 183.45C123.185 188.642 123.185 188.642 120.748 190.075C117.722 190.968 115.289 189.954 112.594 188.545C112.286 188.389 111.978 188.233 111.661 188.073C110.688 187.579 109.719 187.079 108.75 186.577C108.087 186.239 107.424 185.902 106.76 185.565C105.143 184.742 103.529 183.913 101.917 183.08C101.921 182.803 101.925 182.526 101.929 182.241C101.934 181.694 101.934 181.694 101.939 181.136C101.943 180.775 101.947 180.414 101.951 180.042C101.841 176.675 99.792 174.601 97.4696 172.332C95.8993 171.001 94.616 170.138 92.4924 170.087C91.5028 170.062 90.6424 170.001 89.6868 169.738C88.8298 168.534 88.8298 168.534 88.4259 167.736C87.6054 166.402 86.5714 165.356 85.4712 164.248C85.2704 164.04 85.0696 163.831 84.8627 163.616C83.2415 162 81.7081 160.914 79.3417 160.784C79.0101 160.796 78.6786 160.808 78.337 160.82C77.2758 160.752 77.2758 160.752 76.345 160.473C75.6608 159.606 75.3065 158.768 74.8987 157.744C73.9178 155.388 71.8945 153.534 69.6741 152.319C68.0852 151.685 66.7711 151.486 65.0646 151.509C64.6676 151.511 64.2706 151.514 63.8616 151.516C62.6063 151.538 62.6063 151.538 61.3267 151.92C60.0383 151.949 60.0383 151.949 59.4537 151.542C58.835 150.897 58.2899 150.225 57.7451 149.517C57.323 148.999 56.9007 148.481 56.4784 147.963C56.1628 147.567 56.1628 147.567 55.8409 147.163C54.9204 146.016 53.9589 144.907 52.9967 143.796C52.6303 143.368 52.264 142.94 51.8979 142.511C50.9211 141.372 49.9386 140.237 48.9538 139.104C48.5476 138.637 48.1421 138.168 47.7376 137.698C46.7614 136.566 45.7779 135.443 44.771 134.338C41.2514 130.43 41.2514 130.43 41.074 128.341C41.3068 125.208 44.0852 121.977 45.7467 119.428C46.1437 118.813 46.5408 118.199 46.9375 117.584C47.3395 116.962 47.7423 116.34 48.145 115.718C49.2924 113.941 50.427 112.157 51.5606 110.371C51.9843 109.705 52.408 109.04 52.8317 108.374C53.7074 106.996 54.5816 105.618 55.4549 104.239C56.7304 102.226 58.0116 100.217 59.2971 98.2108C59.4808 97.9231 59.6646 97.6353 59.8539 97.3388C60.3519 96.5616 60.8543 95.7875 61.3586 95.0144C61.5705 94.6823 61.5705 94.6823 61.7867 94.3434C63.8358 91.2357 65.8474 90.4924 69.4412 91.3885Z" fill="#1E1E1E"/>
<path d="M160.844 43.361C161.232 43.7857 161.599 44.2297 161.955 44.6813C165.295 48.5791 170.206 50.9664 175.297 51.5144C180.391 51.8834 184.99 50.6135 189.751 48.9201C190.573 52.7268 190.64 56.465 190.631 60.3395C190.631 60.6593 190.631 60.9791 190.63 61.3086C190.616 66.4463 190.293 71.3489 189.01 76.3451C188.93 76.6619 188.851 76.9788 188.769 77.3052C185.919 88.3694 180.234 97.8099 172.332 105.994C172.078 106.263 171.824 106.532 171.562 106.809C168.247 110.238 164.415 112.978 160.473 115.629C157.207 113.712 154.403 111.456 151.578 108.958C151.383 108.788 151.187 108.618 150.985 108.442C148.302 106.105 145.976 103.626 143.796 100.805C143.351 100.264 143.351 100.264 142.897 99.7121C132.312 86.7217 128.813 69.3113 130.226 52.9172C130.361 51.6914 130.5 50.483 130.824 49.2907C131.566 48.9201 131.566 48.9201 132.643 49.2632C133.082 49.4328 133.522 49.6024 133.975 49.7772C139.835 51.9459 145.843 52.3912 151.709 49.8684C154.778 48.3195 157.261 46.3256 159.601 43.8185C160.102 43.361 160.102 43.361 160.844 43.361ZM171.522 66.7093C171.278 66.8607 171.035 67.0122 170.784 67.1682C168.632 68.5225 166.561 69.9711 164.55 71.5272C164.054 71.9084 164.054 71.9084 163.549 72.2973C159.533 75.4824 156.144 78.8683 153.336 83.1578C152.69 84.1278 152.69 84.1278 151.949 84.869C151.61 84.5255 151.271 84.182 150.921 83.8281C150.476 83.3798 150.031 82.9315 149.586 82.4832C149.363 82.2565 149.139 82.0299 148.909 81.7963C148.694 81.5801 148.479 81.364 148.257 81.1412C147.96 80.8414 147.96 80.8414 147.657 80.5355C146.872 79.8128 146.396 79.6813 145.324 79.5415C144.11 79.5748 144.11 79.5748 143.263 80.4912C142.594 81.4678 142.594 81.4678 142.76 82.4385C143.087 83.4932 143.453 83.9839 144.215 84.7735C144.453 85.0233 144.691 85.2732 144.936 85.5306C145.187 85.7862 145.437 86.0418 145.695 86.3051C145.937 86.5578 146.178 86.8106 146.427 87.0709C147.151 87.8246 147.881 88.5714 148.613 89.3163C148.856 89.5648 149.099 89.8134 149.349 90.0695C149.694 90.4204 149.694 90.4204 150.047 90.7785C150.253 90.9878 150.458 91.1971 150.67 91.4127C151.461 92.1453 151.932 92.279 153.014 92.4201C154.217 92.401 154.217 92.401 154.912 91.4994C155.701 90.3616 156.261 89.2314 156.836 87.9728C159.12 83.1978 162.873 79.449 167.051 76.2756C167.318 76.0706 167.584 75.8655 167.858 75.6543C169.342 74.5336 170.849 73.5023 172.442 72.542C172.925 72.2508 172.925 72.2508 173.417 71.9538C174.041 71.5836 174.67 71.2214 175.304 70.8682C177.11 69.8196 177.11 69.8196 177.939 67.9326C177.995 66.7023 177.995 66.7023 177.312 65.8059C175.191 64.4459 173.44 65.4813 171.522 66.7093Z" fill="#1E1E1E"/>
<path d="M130.824 88.5751C130.991 88.913 130.991 88.913 131.162 89.2576C136.244 99.4526 142.588 108.165 151.578 115.259C151.778 115.417 151.978 115.575 152.183 115.738C153.573 116.834 154.977 117.907 156.396 118.965C156.684 119.182 156.972 119.4 157.269 119.624C157.516 119.796 157.763 119.969 158.017 120.146C158.219 120.289 158.421 120.432 158.628 120.579C159.828 120.97 160.741 120.73 161.955 120.447C163.134 119.833 163.134 119.833 164.225 119.034C164.593 118.78 164.961 118.525 165.34 118.263C166.048 117.743 166.741 117.203 167.419 116.644C168.255 116 168.255 116 168.997 116C169.731 117.282 170.464 118.563 171.197 119.845C171.406 120.21 171.615 120.575 171.831 120.951C172.13 121.474 172.13 121.474 172.435 122.008C172.712 122.491 172.712 122.491 172.994 122.984C173.853 124.508 174.111 125.748 173.815 127.489C171.784 132.301 166.201 135.521 161.585 137.495C160.481 137.893 159.37 138.259 158.249 138.607C157.99 138.344 157.73 138.081 157.463 137.809C156.482 136.815 155.499 135.823 154.515 134.832C154.092 134.406 153.671 133.979 153.25 133.552C150.864 131.13 148.466 128.824 145.797 126.713C144.898 125.999 144.034 125.255 143.17 124.501C141.436 123.112 139.599 122.192 137.609 121.238C131.625 118.343 126.32 114.309 121.119 110.209C120.907 110.042 120.695 109.875 120.476 109.703C118.769 108.357 118.769 108.357 117.966 107.715C117.368 107.237 116.766 106.766 116.162 106.295C115.818 106.022 115.473 105.749 115.118 105.468C114.023 104.807 113.546 104.669 112.294 104.882C111.372 105.331 111.372 105.331 110.487 105.947C107.672 107.705 105.198 108.071 101.917 107.847C101.55 107.724 101.183 107.602 100.805 107.476C99.2973 107.277 99.2973 107.277 97.8401 107.476C97.0481 108.351 96.569 109.017 96.0103 110.024C95.6979 110.536 95.3833 111.047 95.0664 111.557C94.9114 111.809 94.7563 112.061 94.5966 112.321C92.9903 114.802 90.9714 117.096 88.2044 118.224C86.331 118.45 85.2823 118.221 83.7571 117.112C84.0097 114.909 84.7712 112.918 85.516 110.845C85.6536 110.458 85.7911 110.07 85.9329 109.671C86.3717 108.437 86.8132 107.204 87.2547 105.97C87.5504 105.139 87.846 104.308 88.1414 103.477C88.6838 101.953 89.2263 100.43 89.7714 98.9071C89.8806 98.6019 89.9897 98.2967 90.1022 97.9823C90.2097 97.6908 90.3172 97.3994 90.428 97.0991C90.529 96.7738 90.63 96.4486 90.7341 96.1135C91.2886 95.0081 91.7197 94.8319 92.8586 94.3834C93.2137 94.2414 93.5688 94.0994 93.9347 93.9532C94.5199 93.7346 94.5199 93.7346 95.1171 93.5117C95.5259 93.3567 95.9348 93.2017 96.3561 93.042C97.7031 92.5425 99.0555 92.0616 100.411 91.5863C100.87 91.4236 101.329 91.2609 101.802 91.0933C111.483 87.7103 120.653 87.5205 130.824 88.5751Z" fill="#1E1E1E"/>
<path d="M67.0797 156.396C68.2695 157.094 69.1324 157.964 70.0446 158.99C70.3427 159.296 70.6408 159.602 70.9479 159.917C71.7455 161.193 71.9747 161.921 71.8976 163.438C71.2184 164.597 70.2593 165.467 69.3034 166.402C68.8684 166.845 68.4341 167.288 68.0004 167.731C67.081 168.666 66.1601 169.599 65.231 170.524C65.0341 170.721 64.8371 170.917 64.6341 171.12C63.4914 172.157 62.2588 172.263 60.762 172.261C59.2162 171.838 58.3337 170.991 57.2123 169.877C57.0148 169.684 56.8173 169.491 56.6139 169.292C55.7485 168.369 55.2508 167.654 54.98 166.413C55.3048 164.896 56.0938 163.922 57.0733 162.766C57.2577 162.541 57.4421 162.315 57.632 162.083C58.1806 161.417 58.737 160.759 59.297 160.102C59.5956 159.751 59.8941 159.399 60.2018 159.037C62.3415 156.578 63.7234 155.839 67.0797 156.396Z" fill="#1E1E1E"/>
<path d="M80.7923 166.402C84.241 169.254 84.241 169.254 84.8622 171.316C84.8704 172.988 84.543 173.379 83.4233 174.532C83.2072 174.739 82.9911 174.945 82.7684 175.158C82.5493 175.377 82.3302 175.597 82.1044 175.823C81.6409 176.283 81.1737 176.74 80.7032 177.194C79.982 177.891 79.2745 178.6 78.5679 179.311C78.1158 179.758 77.6629 180.203 77.2093 180.648C76.9969 180.86 76.7845 181.073 76.5657 181.292C75.9553 181.874 75.9553 181.874 74.8626 182.709C73.565 182.54 72.9506 182.052 72.0324 181.138C71.6658 180.774 71.6658 180.774 71.2919 180.402C70.9153 180.019 70.9153 180.019 70.5311 179.629C70.2758 179.377 70.0204 179.126 69.7573 178.868C69.5144 178.623 69.2715 178.379 69.0212 178.127C68.6889 177.793 68.6889 177.793 68.3499 177.452C67.7572 176.698 67.5073 176.256 67.4504 175.297C67.862 174.627 67.862 174.627 68.5116 173.941C68.7522 173.683 68.9928 173.425 69.2407 173.16C69.506 172.887 69.7713 172.614 70.0447 172.332C70.3143 172.049 70.5839 171.766 70.8617 171.474C71.7158 170.585 72.581 169.709 73.4496 168.835C73.7437 168.533 74.0377 168.231 74.3407 167.92C74.6252 167.634 74.9097 167.348 75.2028 167.052C75.458 166.794 75.7132 166.535 75.9761 166.269C77.6502 164.894 79.0634 165.288 80.7923 166.402Z" fill="#1E1E1E"/>
<path d="M92.6518 174.927C94.5384 175.851 96.2459 177.425 97.0991 179.374C97.0124 181.568 96.4423 182.536 94.9058 184.073C94.7224 184.258 94.539 184.442 94.3501 184.633C93.963 185.02 93.5732 185.404 93.1808 185.785C92.5832 186.368 91.9973 186.961 91.4118 187.556C91.033 187.932 90.6534 188.308 90.2732 188.682C89.9301 189.021 89.587 189.36 89.2335 189.709C88.0913 190.578 87.4067 190.818 85.9809 190.863C85.0051 190.234 85.0051 190.234 84.0815 189.334C83.7748 189.043 83.4681 188.751 83.1521 188.451C80.8572 186.035 80.8572 186.035 80.6382 184.817C80.855 183.417 81.646 182.729 82.6309 181.789C82.8184 181.603 83.0058 181.417 83.1989 181.226C83.7977 180.635 84.4028 180.051 85.008 179.467C85.4128 179.068 85.8172 178.669 86.2212 178.269C89.8584 174.694 89.8584 174.694 92.6518 174.927Z" fill="#1E1E1E"/>
<path d="M50.7732 148.984C52.7377 150.47 54.1344 152.195 55.591 154.173C55.2204 154.914 55.2204 154.914 54.6414 155.145C53.31 155.35 52.1237 155.372 50.7732 155.284C49.8525 153.903 49.8754 152.806 50.0319 151.208C50.4025 149.911 50.4025 149.911 50.7732 148.984Z" fill="#1E1E1E"/>
</svg>
