<svg width="20" height="18" viewBox="0 0 20 18" fill="none" xmlns="http://www.w3.org/2000/svg">
<path d="M19.1668 1.77278C18.3688 2.33568 17.4853 2.76621 16.5502 3.04778C16.0483 2.47071 15.3813 2.06169 14.6394 1.87606C13.8974 1.69042 13.1164 1.73711 12.4019 2.00983C11.6874 2.28254 11.0739 2.76812 10.6443 3.40088C10.2148 4.03364 9.98991 4.78306 10.0002 5.54778V6.38112C8.53569 6.41909 7.08456 6.09429 5.776 5.43566C4.46745 4.77702 3.34209 3.80498 2.50016 2.60612C2.50016 2.60612 -0.83317 10.1061 6.66683 13.4395C4.9506 14.6044 2.90613 15.1886 0.833496 15.1061C8.3335 19.2728 17.5002 15.1061 17.5002 5.52278C17.4994 5.29066 17.4771 5.05911 17.4335 4.83112C18.284 3.99236 18.8842 2.93338 19.1668 1.77278Z" stroke="#1E1E1E" stroke-width="2" stroke-linecap="round" stroke-linejoin="round"/>
</svg>
