<svg width="32" height="32" viewBox="0 0 32 32" fill="none" xmlns="http://www.w3.org/2000/svg">
<path fill-rule="evenodd" clip-rule="evenodd" d="M15.9997 7.33198C11.1366 7.33198 7.21285 11.2175 7.21285 15.9877C7.21285 20.758 11.1366 24.6435 15.9997 24.6435C20.8629 24.6435 24.7866 20.758 24.7866 15.9877C24.7866 11.2175 20.8629 7.33198 15.9997 7.33198ZM21.115 15.9877L12.7216 20.5779V11.3975L21.115 15.9877Z" fill="#FF0000"/>
<path fill-rule="evenodd" clip-rule="evenodd" d="M16 31.7254C24.8366 31.7254 32 24.6794 32 15.9877C32 7.29601 24.8366 0.25 16 0.25C7.16344 0.25 0 7.29601 0 15.9877C0 24.6794 7.16344 31.7254 16 31.7254ZM5.63908 15.9877C5.63908 10.3279 10.288 5.75821 15.9997 5.75821C21.7115 5.75821 26.3604 10.3279 26.3604 15.9877C26.3604 21.6475 21.7115 26.2172 15.9997 26.2172C10.288 26.2172 5.63908 21.6475 5.63908 15.9877Z" fill="#FF0000"/>
</svg>
